<svg id="mySvg" xmlns:mydata="http://www.w3.org/2000/svg" mydata:contrastcolor="008755" mydata:template="BlackAndHighlightColorHex1" mydata:presentation="2.5" mydata:layouttype="undefined" mydata:specialfontid="undefined" mydata:id1="740" mydata:id2="281" mydata:companyname="Ignus Contabilidade" mydata:companytagline="" version="1.1" xmlns="http://www.w3.org/2000/svg" xmlns:xlink="http://www.w3.org/1999/xlink" viewBox="40 150 480 168"><defs><linearGradient x1="65" y1="235" x2="485" y2="235" gradientUnits="userSpaceOnUse" id="color-184606"><stop offset="0" stop-color="#7b4397"/><stop offset="1" stop-color="#dc2430"/></linearGradient></defs><g fill="url(#color-184606)" fill-rule="none" stroke="none" stroke-width="1" stroke-linecap="butt" stroke-linejoin="miter" stroke-miterlimit="10" stroke-dasharray="" stroke-dashoffset="0" font-family="none" font-weight="none" font-size="none" text-anchor="none" style="mix-blend-mode: normal"><g data-paper-data="{&quot;isGlobalGroup&quot;:true}"><g data-paper-data="{&quot;textHeightFactor&quot;:0.3893612934491687,&quot;isSecondaryText&quot;:true}" fill-rule="nonzero">

<path d="M289.25721,295.60676c0,-0.67085 -0.85952,-1.25784 -1.17399,-1.25784h-7.65187c-0.60796,0 -1.17399,0.71278 -1.17399,1.25784c0,0.60796 0.54506,1.19495 1.17399,1.19495h2.45279c0.10482,0 0.12578,0.06289 0.12578,0.12578v12.09624c0,0.67085 0.54506,1.13206 1.23688,1.13206c0.64988,0 1.21591,-0.48217 1.21591,-1.13206v-12.03335c0,-0.20964 0.12578,-0.18868 0.14675,-0.18868h2.47375c0.60796,0 1.17399,-0.58699 1.17399,-1.19495z" data-paper-data="{&quot;glyphName&quot;:&quot;T&quot;,&quot;glyphIndex&quot;:3,&quot;word&quot;:1}"/>

<path d="M320.96624,308.85602c0,-0.67085 -0.56603,-1.21591 -1.19495,-1.21591h-4.44437c-0.10482,0 -0.12578,-0.06289 -0.12578,-0.12578v-4.00413c0,-0.06289 0.04193,-0.10482 0.12578,-0.10482h4.44437c0.67085,0 1.19495,-0.54506 1.19495,-1.23688c0,-0.67085 -0.56603,-1.21591 -1.19495,-1.21591h-4.44437c-0.08386,0 -0.12578,-0.02096 -0.12578,-0.10482v-3.94124c0,-0.06289 0.04193,-0.10482 0.12578,-0.10482h4.44437c0.69181,0 1.11109,-0.50314 1.11109,-1.11109c0,-0.90145 -0.5241,-1.3417 -1.11109,-1.3417h-5.828c-0.92242,0 -1.19495,0.79663 -1.19495,1.71905v12.34781c0,0.85952 0.25157,1.65616 1.21591,1.65616h5.59739c0.7547,0 1.40459,-0.41928 1.40459,-1.21591z" data-paper-data="{&quot;glyphName&quot;:&quot;E&quot;,&quot;glyphIndex&quot;:12,&quot;lastGlyphOfWord&quot;:true,&quot;word&quot;:1}"/>

<path d="M350.19612,310.23964c3.01882,-0.67085 -0.56603,-1.42555 4.98944,-1.69809c0.31446,-0.27253 0.67085,-0.58699 0.67085,-1.17399c0,-0.67085 -0.54506,-1.21591 -1.21591,-1.21591c-0.39832,0 -0.58699,0.14675 -0.92242,0.41928c-0.96434,0.79663 -2.24315,1.21591 -3.52196,1.23688c-2.89303,-0.08386 -5.59739,-2.64147 -5.59739,-5.57643c0,-3.08171 2.41086,-5.5345 5.57643,-5.59739c1.29977,0 2.57857,0.44024 3.54292,1.23688c0.33542,0.2935 0.5241,0.39832 0.92242,0.39832c0.67085,0 1.21591,-0.5241 1.21591,-1.21591c0,-0.54506 -0.35639,-0.90145 -0.64988,-1.15302c-0.31446,-0.27253 -1.99158,-1.71905 -5.0104,-1.71905c-4.44437,0 -8.05018,3.62678 -8.05018,8.05018c0,4.40244 3.62678,8.00825 8.05018,8.00825z" data-paper-data="{&quot;glyphName&quot;:&quot;C&quot;,&quot;glyphIndex&quot;:0,&quot;firstGlyphOfWord&quot;:true,&quot;word&quot;:1}"/>

<path d="M191.07628,256.63495v-1.63833h293.92372v1.83833z" data-paper-data="{&quot;isContainerTopLineAboveSecondaryText&quot;:true}"/></g><g data-paper-data="{&quot;isPrimaryText&quot;:true}" fill-rule="nonzero">


<path d="M213.68581,249.16484v-73.38403c0,0 0.25839,-16.02046 -22.60952,-16.02046v73.51323c0,0 -0.1292,15.89126 22.60952,15.89126z" data-paper-data="{&quot;glyphName&quot;:&quot;I&quot;,&quot;glyphIndex&quot;:0,&quot;firstGlyphOfWord&quot;:true,&quot;word&quot;:1}"/>
<path d="M354.2524,249.16484c0,-10.98176 0,-21.83433 0,-32.6869c0,-17.82922 -14.34089,-32.17011 -32.17011,-32.17011c-6.07227,0 -12.01534,1.67956 -17.44163,4.39271c-3.35913,-2.58394 -8.01023,-4.39271 -14.59929,-4.39271v14.34089c-2.32555,1.80876 -4.6511,3.87592 -6.84745,5.94307v-20.28397c-6.97665,0 -11.88615,2.06716 -15.24527,4.90949c-4.90949,-3.10073 -10.85257,-4.90949 -17.05403,-4.90949c-17.95842,0 -32.42851,14.47009 -32.42851,32.42851c0,20.67156 18.4752,35.14165 37.59639,32.04091c1.55037,-0.25839 3.10073,-0.64599 4.6511,-1.16278v8.65621c0.25839,5.42628 -4.13431,9.94819 -9.5606,9.94819c-5.55548,0 -9.94819,-4.5219 -9.5606,-9.94819c-28.68179,0 -14.85768,32.5577 9.5606,32.5577c17.95842,0 32.29931,-14.72848 32.04091,-32.5577v-22.86791c2.32555,-2.06716 4.5219,-4.26351 6.71826,-6.33066c0.1292,3.22993 1.16278,22.09273 22.60952,22.09273c0,-10.85257 0,-21.83433 0,-32.6869c0,-1.80876 0.51679,-3.35913 1.29197,-4.7803c-6.84745,2.19635 -12.91972,6.45986 -19.25039,10.98176c8.91461,-8.52702 17.57082,-15.76206 27.51901,-15.76206c5.29709,0 9.5606,4.26351 9.5606,9.5606c0,0.90438 0,10.07738 0,10.07738c0,0 -0.90438,22.60952 22.60952,22.60952zM250.89461,226.68452c-5.55548,0 -10.07738,-4.5219 -10.07738,-9.94819c0,-5.55548 4.5219,-9.94819 10.07738,-9.94819c6.45986,0 11.36936,6.58906 9.5606,12.79053c5.42628,-1.67956 10.33578,-5.16789 18.8628,-11.24016c-10.20658,9.5606 -19.25039,18.34601 -28.42339,18.34601z" data-paper-data="{&quot;glyphName&quot;:&quot;&quot;,&quot;glyphIndex&quot;:1,&quot;word&quot;:1}"/><path d="M383.32178,216.99473v-10.07738c0,-0.1292 0.90438,-22.60952 -22.60952,-22.60952c0,32.29931 0,32.5577 0,32.6869c0,17.70002 14.47009,32.17011 32.17011,32.17011c17.70002,0 32.17011,-14.47009 32.17011,-32.17011c0,-0.1292 0,-0.38759 0,-10.07738c0,-0.1292 0.90438,-22.60952 -22.60952,-22.60952c0,32.29931 0,32.5577 0,32.6869c0,5.29709 -4.26351,9.5606 -9.5606,9.5606c-5.29709,0 -9.5606,-4.26351 -9.5606,-9.5606z" data-paper-data="{&quot;glyphName&quot;:&quot;u&quot;,&quot;glyphIndex&quot;:2,&quot;word&quot;:1}"/><path d="M429.83278,237.40789c6.71826,7.10585 16.27885,11.75695 26.22704,11.75695c9.173,0 17.05403,-3.87592 22.09273,-10.07738c9.94819,-11.49855 -7.75183,-25.06426 -15.89126,-32.17011c12.66133,0.38759 2.45475,12.27374 22.73871,-10.98176c-6.84745,-7.10585 -16.27885,-11.62775 -26.35624,-11.62775c-9.173,0 -17.05403,3.87592 -22.09273,10.07738c-9.81899,11.36936 8.01023,25.06426 16.02046,32.17011c-12.66133,-0.51679 -2.45475,-12.40293 -22.73871,10.85257z" data-paper-data="{&quot;glyphName&quot;:&quot;s&quot;,&quot;glyphIndex&quot;:3,&quot;lastGlyphOfWord&quot;:true,&quot;word&quot;:1}"/></g><g data-paper-data="{&quot;fillRule&quot;:&quot;evenodd&quot;,&quot;isIcon&quot;:&quot;true&quot;,&quot;iconType&quot;:&quot;icon&quot;,&quot;rawIconId&quot;:&quot;17732&quot;,&quot;selectedEffects&quot;:{&quot;container&quot;:&quot;&quot;,&quot;transformation&quot;:&quot;&quot;,&quot;pattern&quot;:&quot;&quot;},&quot;iconStyle&quot;:&quot;standalone&quot;,&quot;bounds&quot;:{&quot;x&quot;:64.99999999999999,&quot;y&quot;:152.23639272479562,&quot;width&quot;:94.82847207537215,&quot;height&quot;:165.52721455040881}}" fill-rule="evenodd">
<path d="M67.30988,283.54739c7.2579,22.15305 25.83857,29.30779 25.83857,29.30779c15.67054,8.37437 39.26785,6.45923 55.7437,-9.04991c16.26787,-15.31113 9.57071,-30.30612 9.57071,-30.30612c0,0 0.599,12.32444 -8.93344,13.39932c-5.84026,0.6589 -10.98335,-3.82861 -10.44591,-10.52744c0.43594,-5.41763 4.82528,-8.99832 8.53244,-14.99333c4.94342,-7.99001 8.17803,-20.20464 5.78868,-28.24124c-3.55408,-11.95174 -13.91846,-16.82194 -13.91846,-16.82194c0,0 4.64392,3.72046 4.94841,12.66887c0.44592,13.10981 -14.74041,16.63892 -20.32943,7.83526c-4.91464,-7.74076 -0.32879,-17.1098 3.7218,-25.38533c0.55457,-1.13294 1.099,-2.24525 1.60765,-3.33011c4.78535,-10.20797 2.55241,-23.28783 -9.38601,-32.3394c-12.66222,-9.60232 -6.55739,-23.52743 -6.55739,-23.52743c-8.17803,8.81696 -9.47087,19.08982 -1.3045,31.12642c8.16471,12.03493 1.22629,18.75538 -3.6173,19.15305c-9.26122,0.76539 -10.68551,-8.68717 -10.68551,-8.68717c-5.31414,12.01579 -1.84875,19.32494 1.71714,26.84589c2.10383,4.43743 4.24242,8.94841 4.63393,14.54341c0.54909,7.85024 -0.31947,14.03659 -6.06156,19.46088c-4.31114,4.07321 -12.66222,4.50914 -16.71712,-0.46589c-7.93677,-9.74042 2.68552,-24.42261 2.68552,-24.42261c-14.18135,9.1514 -23.77035,32.58233 -16.83192,53.75702z" data-paper-data="{&quot;isPathIcon&quot;:true}"/></g></g></g></svg>